<svg width="634.000000" height="618.000000" viewBox="0 0 634 618" fill="none" xmlns="http://www.w3.org/2000/svg" xmlns:xlink="http://www.w3.org/1999/xlink">
	<desc>
			Created with Pixso.
	</desc>
	<defs>
		<clipPath id="clip89_1312">
			<rect id="undraw_personal_information_re_vw8a 1" width="576.000000" height="404.000000" transform="translate(0.000000 132.649414)" fill="white" fill-opacity="0"/>
		</clipPath>
	</defs>
	<ellipse id="Ellipse 149" cx="312.719971" cy="327.474609" rx="291.598114" ry="290.174347" fill="#FFFFFF" fill-opacity="1.000000"/>
	<g opacity="0.400000">
		<ellipse id="Ellipse 151" cx="312.719971" cy="327.474609" rx="291.598114" ry="290.174347" fill="#2954B1" fill-opacity="1.000000"/>
	</g>
	<ellipse id="Ellipse 150" cx="353.352783" cy="304.710449" rx="279.147400" ry="304.210480" stroke="#2954B1" stroke-opacity="1.000000" stroke-width="1.000000"/>
	<rect id="undraw_personal_information_re_vw8a 1" width="576.000000" height="404.000000" transform="translate(0.000000 132.649414)" fill="#FFFFFF" fill-opacity="0"/>
	<g clip-path="url(#clip89_1312)">
		<path id="Vector" d="M576 347.36C576 429.08 526.5 498.71 457.17 525.2C446.63 529.24 435.74 532.23 424.66 534.13C394.17 539.37 362.91 536.39 333.82 525.5C264.06 499.22 214.2 429.36 214.24 347.32C214.24 242.83 295.22 158.08 395.12 158.08C432.87 158.03 469.68 170.39 500.36 193.42C546.15 227.75 576 283.91 576 347.36Z" fill="#E5E5E5" fill-opacity="1.000000" fill-rule="nonzero"/>
		<path id="Vector" d="M457.17 525.2C446.63 529.24 435.74 532.23 424.66 534.13C394.17 539.37 362.91 536.39 333.82 525.5L342.18 490.43L342.68 488.32L359.73 488.39L445.37 488.71L446.46 492.1L457.17 525.2Z" fill="#2F2E41" fill-opacity="1.000000" fill-rule="nonzero"/>
		<path id="Rectangle 25" d="M0 132.64L157.12 132.64L157.12 318.69L0 318.69L0 132.64Z" fill="#E6E6E6" fill-opacity="1.000000" fill-rule="evenodd"/>
		<path id="Rectangle 25-2" d="M2.8 136.58L154.04 136.58L154.04 314.75L2.8 314.75L2.8 136.58Z" fill="#FFFFFF" fill-opacity="1.000000" fill-rule="evenodd"/>
		<path id="Ellipse 116" d="M87.03 299.54C87.03 304.44 83.24 308.42 78.56 308.42C73.87 308.42 70.08 304.44 70.08 299.54C70.08 294.65 73.87 290.67 78.56 290.67C83.24 290.67 87.03 294.65 87.03 299.54Z" fill="#E6E6E6" fill-opacity="1.000000" fill-rule="evenodd"/>
		<path id="Rectangle 31" d="M28.43 199.65L77.12 199.65L77.12 204.86L28.43 204.86L28.43 199.65Z" fill="#E6E6E6" fill-opacity="1.000000" fill-rule="evenodd"/>
		<path id="Rectangle 32" d="M28.43 215.27L101.92 215.27L101.92 220.48L28.43 220.48L28.43 215.27Z" fill="#2954B1" fill-opacity="1.000000" fill-rule="evenodd"/>
		<path id="Rectangle 38" d="M28.43 230.99L94.71 230.99L94.71 236.2L28.43 236.2L28.43 230.99Z" fill="#E6E6E6" fill-opacity="1.000000" fill-rule="evenodd"/>
		<path id="Rectangle 39" d="M28.43 246.29L130.78 246.29L130.78 251.5L28.43 251.5L28.43 246.29Z" fill="#2954B1" fill-opacity="1.000000" fill-rule="evenodd"/>
		<path id="Rectangle 40" d="M29.49 260.87L112.9 260.87L112.9 266.08L29.49 266.08L29.49 260.87Z" fill="#E6E6E6" fill-opacity="1.000000" fill-rule="evenodd"/>
		<path id="Path 846" d="M223.41 435.37C224.01 436.02 224.56 436.71 225.05 437.44L301.85 435.47L310.81 418.34L337.28 429.11L324.24 461.05C323.19 463.63 321.36 465.78 319.04 467.19C316.71 468.59 314.02 469.16 311.36 468.83L224.59 457.86C222.54 460.57 219.76 462.57 216.6 463.58C213.44 464.59 210.07 464.58 206.92 463.53C203.77 462.49 201 460.47 198.98 457.74C196.96 455.01 195.78 451.69 195.6 448.25C195.41 444.79 196.24 441.37 197.97 438.42C199.69 435.48 202.23 433.15 205.25 431.75C208.27 430.35 211.63 429.95 214.87 430.6C218.12 431.24 221.09 432.91 223.41 435.37L223.41 435.37Z" fill="#9F616A" fill-opacity="1.000000" fill-rule="nonzero"/>
		<path id="Path 852" d="M326.78 337.55L362.72 325.22L373.27 310.07L424.64 313.26L432.18 330.93L459.57 344.48L455.37 426.28L448.16 502.84C411.13 482.78 342.03 498.08 341.42 498.32L326.78 337.55Z" fill="#2954B1" fill-opacity="1.000000" fill-rule="nonzero"/>
		<path id="Path 853" d="M334.46 448.28L297.91 432.97L298.06 432.29C298.22 431.6 313.78 363.57 315.84 352.63C318 341.24 325.86 338.09 326.19 337.97L326.44 337.87L340.9 342.48L347.26 394.72L334.46 448.28Z" fill="#2954B1" fill-opacity="1.000000" fill-rule="nonzero"/>
		<path id="Path 855" d="M413.39 499.48C414.25 499.46 415.11 499.51 415.96 499.63L466.8 439.36L460.88 420.84L486.43 407.85L499.94 439.57C501.03 442.14 501.3 445 500.71 447.74C500.11 450.47 498.68 452.93 496.64 454.75L429.96 513.87C430.46 517.28 429.97 520.78 428.53 523.89C427.09 527 424.79 529.58 421.92 531.28C419.04 532.99 415.74 533.74 412.45 533.43C409.17 533.13 406.04 531.78 403.5 529.58C400.96 527.37 399.12 524.4 398.23 521.08C397.34 517.75 397.44 514.22 398.51 510.95C399.59 507.68 401.59 504.84 404.24 502.79C406.9 500.74 410.09 499.58 413.39 499.48Z" fill="#9F616A" fill-opacity="1.000000" fill-rule="nonzero"/>
		<path id="Path 856" d="M462.74 445.23L441.53 393.03L449.8 356.67L458.71 344.89C459.37 344.59 460.07 344.45 460.78 344.45C461.49 344.46 462.19 344.62 462.84 344.93C466.13 346.31 468.92 350.55 471.16 357.53L491.03 416.77L462.74 445.23Z" fill="#2954B1" fill-opacity="1.000000" fill-rule="nonzero"/>
		<path id="Path 857" d="M352.71 290.73L352.71 251.38C352.69 244.45 353.97 237.59 356.49 231.19C359 224.78 362.69 218.95 367.35 214.04C372.02 209.13 377.56 205.22 383.67 202.55C389.77 199.88 396.32 198.5 402.94 198.47C409.56 198.45 416.11 199.79 422.24 202.42C428.36 205.05 433.93 208.91 438.62 213.79C443.32 218.67 447.05 224.47 449.6 230.86C452.15 237.25 453.48 244.11 453.5 251.03C453.5 251.15 453.5 251.26 453.5 251.38L453.5 290.73C453.5 292.61 452.78 294.41 451.51 295.74C450.25 297.07 448.52 297.81 446.73 297.82L359.48 297.82C357.69 297.81 355.97 297.07 354.7 295.74C353.43 294.41 352.72 292.61 352.71 290.73Z" fill="#2F2E41" fill-opacity="1.000000" fill-rule="nonzero"/>
		<path id="Ellipse 148" d="M429.7 258.24C429.7 279.59 413.16 296.9 392.75 296.9C372.35 296.9 355.8 279.59 355.8 258.24C355.8 236.89 372.35 219.58 392.75 219.58C413.16 219.58 429.7 236.89 429.7 258.24Z" fill="#9F616A" fill-opacity="1.000000" fill-rule="evenodd"/>
		<path id="Path 858" d="M340.79 254.53C340.8 243.47 345.01 232.87 352.48 225.05C359.95 217.22 370.09 212.83 380.65 212.81L388.18 212.81C398.75 212.83 408.88 217.22 416.35 225.05C423.82 232.87 428.03 243.47 428.04 254.53L428.04 255.32L412.14 255.32L406.72 239.43L405.64 255.32L397.42 255.32L394.69 247.3L394.14 255.32L340.79 255.32L340.79 254.53Z" fill="#2F2E41" fill-opacity="1.000000" fill-rule="nonzero"/>
		<path id="Path 859" d="M389.12 302.24C388.37 301.18 387.92 299.93 387.83 298.62C387.74 297.31 388 295.99 388.59 294.83C396.56 278.97 407.71 249.66 392.9 231.58L391.84 230.28L434.84 230.28L434.84 297.84L395.78 305.05C395.38 305.13 394.98 305.16 394.58 305.16C393.51 305.16 392.46 304.9 391.51 304.39C390.56 303.88 389.74 303.15 389.12 302.24L389.12 302.24Z" fill="#2F2E41" fill-opacity="1.000000" fill-rule="nonzero"/>
		<path id="Path 341" d="M78.42 147.13C74.85 147.13 71.37 148.24 68.4 150.31C65.44 152.39 63.13 155.33 61.76 158.78C60.4 162.23 60.04 166.02 60.74 169.68C61.43 173.34 63.15 176.7 65.67 179.34C68.19 181.98 71.4 183.77 74.9 184.5C78.4 185.23 82.02 184.86 85.32 183.43C88.61 182 91.43 179.58 93.41 176.48C95.39 173.38 96.45 169.73 96.45 166L96.45 166C96.45 163.52 95.98 161.07 95.07 158.78C94.17 156.49 92.84 154.41 91.17 152.66C89.49 150.91 87.5 149.52 85.32 148.57C83.13 147.62 80.79 147.13 78.42 147.13L78.42 147.13ZM78.42 152.79C79.49 152.79 80.53 153.13 81.42 153.75C82.31 154.37 83.01 155.25 83.41 156.29C83.82 157.32 83.93 158.46 83.72 159.56C83.51 160.65 83 161.66 82.24 162.45C81.49 163.25 80.52 163.78 79.47 164C78.42 164.22 77.34 164.11 76.35 163.68C75.36 163.25 74.52 162.53 73.92 161.6C73.33 160.67 73.01 159.57 73.01 158.45C73.01 156.95 73.58 155.51 74.59 154.45C75.61 153.39 76.98 152.79 78.42 152.79ZM78.42 180.04C76.28 180.03 74.18 179.47 72.3 178.42C70.41 177.37 68.8 175.85 67.6 174C67.69 170.23 74.81 168.15 78.42 168.15C82.02 168.15 89.15 170.23 89.24 174C88.04 175.85 86.43 177.37 84.54 178.42C82.66 179.47 80.55 180.03 78.42 180.04Z" fill="#2954B1" fill-opacity="1.000000" fill-rule="nonzero"/>
		<path id="Path 842" d="M78.63 302.95C86.05 288.7 103.85 279.68 118.4 287.81C124.95 291.47 130.16 297.95 131.81 305.6C133.73 314.48 129.69 322.95 125.52 330.42C123.25 334.47 120.77 338.44 118.9 342.72C116.95 347.14 115.57 352.26 117.03 357.07C118.34 361.41 121.64 364.57 125.25 366.89C129.24 369.35 133.48 371.33 137.89 372.79C146.98 375.96 156.56 377.25 166.12 376.61C170.86 376.28 175.57 375.48 180.18 374.24C185.08 372.93 189.89 371.27 194.8 369.99C203 367.86 212.35 366.8 220.12 371.08C227.67 375.24 231.05 383.94 232.1 392.4C234.03 408.03 228.11 424.25 217.42 435.19C212.29 440.44 205.83 444.78 198.8 446.55C192.67 448.1 184.79 448 179.91 443.21C174.46 437.85 175.74 429.26 180.07 423.61C185.59 416.4 194.95 414.67 203.3 414.5C212.79 414.3 222.28 415.78 231.77 414.86C236.4 414.48 240.95 413.33 245.24 411.46C249.01 409.72 252.45 407.29 255.39 404.27C261.25 398.31 265.2 390.38 267.16 382.13C269.53 372.2 269.01 361.77 267.18 351.81C266.2 346.67 264.94 341.59 263.4 336.6C262.77 334.5 259.59 335.4 260.23 337.52C265.89 356.29 269.04 377.99 258.11 395.42C253.59 402.81 246.54 408.12 238.41 410.26C228.95 412.72 219.03 411.5 209.41 411.14C200.27 410.79 190.23 411.16 182.39 416.74C175.96 421.31 171.46 430 173.4 438.21C175.28 446.13 182.55 450.14 189.82 450.76C197.45 451.41 204.95 448.73 211.36 444.54C224.68 435.83 233.55 420.5 235.4 404.25C236.37 395.79 235.38 386.67 231.71 378.98C229.78 374.82 226.77 371.31 223.03 368.85C219.3 366.46 214.98 365.28 210.65 364.86C200.82 363.91 191.36 367.45 182.03 370.15C177.26 371.6 172.38 372.57 167.44 373.07C162.64 373.48 157.82 373.4 153.03 372.82C148.29 372.23 143.62 371.15 139.08 369.58C134.64 368.14 130.38 366.13 126.42 363.59C122.92 361.25 119.89 357.89 119.72 353.32C119.53 348.36 121.92 343.73 124.19 339.55C128.68 331.3 134.22 323.22 135.39 313.56C136.42 305.1 133.17 296.77 127.55 290.75C124.74 287.69 121.35 285.27 117.61 283.64C113.86 282.01 109.83 281.21 105.77 281.29C97.44 281.54 89.47 285.33 83.35 291.15C80.31 294.04 77.75 297.44 75.78 301.2C74.77 303.15 77.61 304.89 78.62 302.94L78.63 302.95Z" fill="#3F3D56" fill-opacity="1.000000" fill-rule="nonzero"/>
	</g>
</svg>
