<svg width="407.000000" height="344.000000" viewBox="0 0 407 344" fill="none" xmlns="http://www.w3.org/2000/svg" xmlns:xlink="http://www.w3.org/1999/xlink">
	<desc>
			Created with Pixso.
	</desc>
	<defs>
		<clipPath id="clip190_495">
			<rect id="undraw_active_support_re_b7sj 1" width="407.000000" height="344.000000" fill="white" fill-opacity="0"/>
		</clipPath>
	</defs>
	<rect id="undraw_active_support_re_b7sj 1" width="407.000000" height="344.000000" fill="#FFFFFF" fill-opacity="0"/>
	<g clip-path="url(#clip190_495)">
		<path id="Vector" d="M217.68 48.31C231.18 38.35 250.19 34.53 265.06 42.3C248.32 49.57 234.68 62.52 226.57 78.86C223.47 85.17 220.67 92.52 214.27 95.44C210.28 97.25 205.58 96.9 201.45 95.43C197.32 93.97 193.65 91.48 190.03 89.01L188.94 88.88C195.39 73.39 204.17 58.28 217.68 48.31Z" fill="#F0F0F0" fill-opacity="1.000000" fill-rule="nonzero"/>
		<path id="Vector" d="M264.94 42.63C251.05 43.07 237.66 47.86 226.65 56.34C224.25 58.12 222.15 60.27 220.41 62.71C218.8 65.14 217.87 67.96 217.72 70.87C217.53 73.58 217.64 76.37 216.79 78.99C216.33 80.32 215.6 81.54 214.63 82.57C213.67 83.6 212.5 84.41 211.21 84.96C208.01 86.4 204.48 86.61 201.02 86.7C197.18 86.79 193.19 86.83 189.7 88.64C189.27 88.86 188.96 88.19 189.38 87.97C195.46 84.83 202.56 86.88 208.94 85.01C211.92 84.13 214.66 82.36 215.85 79.39C216.9 76.79 216.79 73.91 216.96 71.16C217.07 68.32 217.87 65.55 219.3 63.09C220.9 60.57 222.92 58.34 225.27 56.5C230.49 52.27 236.35 48.89 242.62 46.48C249.77 43.69 257.34 42.14 265.01 41.89C265.48 41.88 265.41 42.62 264.94 42.63Z" fill="#FFFFFF" fill-opacity="1.000000" fill-rule="nonzero"/>
		<path id="Vector" d="M230.04 53.4C228.86 51.36 228.45 48.98 228.88 46.66C229.31 44.35 230.54 42.27 232.37 40.78C232.74 40.48 233.22 41.04 232.85 41.34C231.15 42.72 230 44.66 229.6 46.82C229.21 48.97 229.6 51.19 230.7 53.09C230.94 53.5 230.27 53.81 230.04 53.4Z" fill="#FFFFFF" fill-opacity="1.000000" fill-rule="nonzero"/>
		<path id="Vector" d="M217.64 69.48C222.27 70.77 227.22 70.27 231.5 68.08C231.93 67.87 232.24 68.53 231.82 68.75C227.36 71.02 222.21 71.53 217.39 70.17C216.93 70.04 217.18 69.35 217.64 69.48Z" fill="#FFFFFF" fill-opacity="1.000000" fill-rule="nonzero"/>
		<path id="Vector" d="M249.73 44.67C250.02 45.55 250.52 46.35 251.2 46.99C251.87 47.63 252.69 48.09 253.59 48.33C254.05 48.46 253.8 49.15 253.34 49.03C252.35 48.76 251.44 48.24 250.7 47.54C249.95 46.83 249.39 45.95 249.06 44.98C249.02 44.89 249.02 44.79 249.05 44.7C249.09 44.61 249.15 44.53 249.24 44.49C249.33 44.45 249.43 44.44 249.52 44.48C249.61 44.51 249.69 44.58 249.73 44.67Z" fill="#FFFFFF" fill-opacity="1.000000" fill-rule="nonzero"/>
		<path id="Vector" d="M276.85 97.86C276.56 97.79 276.27 97.72 275.98 97.66C272.08 96.75 268.11 96.16 264.12 95.89C263.81 95.86 263.5 95.84 263.19 95.83C253.56 95.29 243.91 96.54 234.73 99.52C231.08 100.71 227.53 102.17 224.1 103.9C219.36 106.29 214.42 109.25 209.33 109.91C208.79 109.99 208.26 110.03 207.72 110.04L188.87 90.22C188.85 90.15 188.82 90.09 188.8 90.02L188.02 89.26C188.19 89.16 188.36 89.06 188.54 88.96C188.63 88.9 188.74 88.85 188.84 88.79C188.9 88.75 188.97 88.71 189.03 88.67C189.05 88.66 189.07 88.65 189.09 88.64C189.15 88.6 189.21 88.57 189.26 88.54C190.26 87.97 191.27 87.4 192.28 86.84C192.28 86.84 192.28 86.84 192.29 86.84C200 82.6 208.14 78.98 216.57 76.7C216.82 76.63 217.08 76.55 217.34 76.5C221.14 75.49 225.02 74.79 228.94 74.42C231.09 74.22 233.24 74.13 235.4 74.15C240.97 74.21 246.49 75.15 251.77 76.92C262.29 80.47 271.55 87.33 276.48 97.11C276.61 97.36 276.73 97.61 276.85 97.86Z" fill="#F0F0F0" fill-opacity="1.000000" fill-rule="nonzero"/>
		<path id="Vector" d="M276.56 98.05C265.21 90.05 251.62 85.82 237.73 85.96C234.74 85.94 231.76 86.39 228.91 87.3C226.16 88.27 223.72 89.96 221.85 92.19C220.06 94.23 218.46 96.53 216.21 98.11C215.04 98.9 213.72 99.43 212.33 99.67C210.94 99.92 209.52 99.87 208.15 99.52C204.73 98.75 201.78 96.79 198.97 94.78C195.85 92.55 192.64 90.18 188.76 89.52C188.29 89.44 188.44 88.71 188.91 88.79C195.66 89.94 200.09 95.85 206.32 98.2C209.22 99.29 212.48 99.52 215.22 97.87C217.62 96.42 219.27 94.05 221.06 91.97C222.86 89.76 225.17 88.03 227.79 86.93C230.58 85.88 233.54 85.32 236.52 85.26C243.24 85.02 249.96 85.85 256.42 87.7C263.81 89.77 270.79 93.08 277.06 97.51C277.44 97.78 276.95 98.33 276.56 98.05Z" fill="#FFFFFF" fill-opacity="1.000000" fill-rule="nonzero"/>
		<path id="Vector" d="M242.2 85.65C242.49 83.32 243.6 81.17 245.34 79.58C247.07 77.99 249.31 77.07 251.66 76.98C252.14 76.96 252.19 77.7 251.71 77.72C249.52 77.79 247.43 78.65 245.82 80.14C244.21 81.62 243.18 83.63 242.92 85.8C242.87 86.28 242.14 86.12 242.2 85.65Z" fill="#FFFFFF" fill-opacity="1.000000" fill-rule="nonzero"/>
		<path id="Vector" d="M222.62 91.03C225.54 94.85 229.79 97.43 234.53 98.26C235 98.34 234.85 99.06 234.38 98.98C229.45 98.11 225.03 95.42 222 91.44C221.71 91.06 222.33 90.65 222.62 91.03Z" fill="#FFFFFF" fill-opacity="1.000000" fill-rule="nonzero"/>
		<path id="Vector" d="M263.19 90.53C262.89 91.41 262.81 92.35 262.96 93.26C263.12 94.18 263.49 95.04 264.06 95.78C264.35 96.15 263.73 96.56 263.44 96.18C262.82 95.37 262.4 94.41 262.23 93.4C262.06 92.39 262.14 91.35 262.47 90.38C262.49 90.28 262.54 90.2 262.63 90.15C262.71 90.09 262.81 90.07 262.9 90.09C263 90.11 263.08 90.17 263.14 90.25C263.19 90.33 263.21 90.43 263.19 90.53Z" fill="#FFFFFF" fill-opacity="1.000000" fill-rule="nonzero"/>
		<path id="Vector" d="M214.11 63.14L212.65 63.14L212.65 23.14C212.65 20.1 212.05 17.09 210.89 14.29C209.72 11.48 208.02 8.92 205.87 6.78C203.72 4.63 201.16 2.92 198.35 1.76C195.54 0.59 192.53 0 189.49 0L104.69 0C101.65 0 98.63 0.59 95.82 1.76C93.01 2.92 90.46 4.63 88.31 6.78C86.16 8.92 84.45 11.48 83.29 14.29C82.12 17.09 81.52 20.1 81.52 23.14L81.52 242.57C81.52 248.71 83.96 254.6 88.31 258.94C92.65 263.28 98.54 265.72 104.69 265.72L189.49 265.72C195.63 265.72 201.52 263.28 205.87 258.94C210.21 254.6 212.65 248.71 212.65 242.57L212.65 91.61L214.11 91.61L214.11 63.14Z" fill="#3F3D56" fill-opacity="1.000000" fill-rule="nonzero"/>
		<path id="Vector" d="M190.42 6.02L179.35 6.02C179.86 7.26 180.06 8.62 179.92 9.96C179.78 11.3 179.32 12.58 178.56 13.7C177.81 14.82 176.8 15.73 175.61 16.37C174.42 17 173.09 17.33 171.74 17.33L123.16 17.33C121.81 17.33 120.49 17 119.3 16.37C118.11 15.73 117.09 14.82 116.34 13.7C115.59 12.58 115.12 11.3 114.99 9.96C114.85 8.62 115.04 7.26 115.55 6.02L105.21 6.02C100.63 6.02 96.23 7.84 92.98 11.08C89.74 14.32 87.91 18.72 87.91 23.31L87.91 242.41C87.91 244.68 88.36 246.93 89.23 249.02C90.1 251.12 91.37 253.03 92.98 254.63C94.59 256.24 96.49 257.51 98.59 258.38C100.69 259.25 102.94 259.7 105.21 259.7L190.42 259.7C192.69 259.7 194.94 259.25 197.04 258.38C199.14 257.51 201.05 256.24 202.65 254.63C204.26 253.03 205.54 251.12 206.4 249.02C207.27 246.93 207.72 244.68 207.72 242.41L207.72 23.31C207.72 18.72 205.9 14.32 202.65 11.08C199.41 7.84 195.01 6.02 190.42 6.02Z" fill="#FFFFFF" fill-opacity="1.000000" fill-rule="nonzero"/>
		<path id="Vector" d="M149.46 189.31C143.18 189.32 136.97 188.09 131.17 185.69C125.37 183.29 120.1 179.78 115.67 175.34C111.23 170.91 107.71 165.65 105.31 159.85C102.91 154.06 101.68 147.85 101.69 141.58C101.68 132.77 104.11 124.14 108.71 116.63C113.32 109.12 119.91 103.04 127.76 99.04C133.45 96.15 139.67 94.42 146.04 93.97C152.41 93.51 158.81 94.33 164.86 96.38C175.57 100.03 184.64 107.36 190.44 117.06C196.25 126.77 198.43 138.22 196.58 149.37C194.73 160.53 188.98 170.67 180.35 177.98C171.72 185.29 160.77 189.31 149.46 189.31ZM149.46 95.72C142.21 95.7 135.06 97.41 128.61 100.71C122.98 103.58 118 107.59 113.98 112.47C109.97 117.36 107 123.02 105.28 129.1C103.56 135.18 103.12 141.56 103.98 147.82C104.84 154.08 106.99 160.1 110.29 165.49C113.59 170.89 117.96 175.54 123.15 179.16C128.33 182.79 134.21 185.3 140.41 186.54C146.62 187.79 153.01 187.74 159.19 186.39C165.37 185.05 171.21 182.45 176.34 178.75C178.81 176.96 181.11 174.93 183.18 172.68C189.23 166.13 193.25 157.96 194.73 149.17C196.21 140.38 195.09 131.34 191.51 123.17C187.93 115.01 182.05 108.06 174.58 103.18C167.11 98.31 158.38 95.71 149.46 95.72Z" fill="#F0F0F0" fill-opacity="1.000000" fill-rule="nonzero"/>
		<path id="Vector" d="M45.95 99.22C47.26 99.38 48.52 99.83 49.64 100.53C50.76 101.24 51.71 102.18 52.42 103.29C53.14 104.4 53.6 105.65 53.78 106.96C53.96 108.27 53.85 109.6 53.46 110.86L69.33 124.07L63.65 135.67L41.5 116.7C39.42 115.9 37.71 114.36 36.69 112.39C35.67 110.41 35.4 108.13 35.95 105.98C36.5 103.82 37.82 101.95 39.67 100.7C41.51 99.45 43.74 98.93 45.95 99.22Z" fill="#FFB6B6" fill-opacity="1.000000" fill-rule="nonzero"/>
		<path id="Vector" d="M194.18 154.31C193.86 150.89 192.54 144.74 191.43 142.47C187.99 133.49 165.81 126.11 162.84 125.16L162.08 116.77L131.27 113.46L127.36 124.19L116.31 128.33C115.56 128.61 114.88 129.05 114.32 129.63C113.76 130.2 113.33 130.89 113.07 131.64L103.16 134.51L93.37 137.34L59.38 113.4L57.77 114.45L47.04 121.44L45.39 122.52L89.38 162.18L105.72 158.35L118.01 155.46L119.06 159.72L116.34 174.67C124.21 182.53 134.63 187.34 145.72 188.23C156.82 189.11 167.87 186.02 176.89 179.5L183.87 173.31C188.73 168.06 192.32 161.75 194.36 154.89L194.18 154.31Z" fill="#E4E4E4" fill-opacity="1.000000" fill-rule="nonzero"/>
		<path id="Vector" d="M170.44 78.58C174.3 90.2 167.99 102.74 156.36 106.59C144.72 110.44 132.17 104.14 128.32 92.51C124.47 80.89 130.78 68.35 142.41 64.5C154.04 60.65 166.59 66.95 170.44 78.58Z" fill="#FFB6B6" fill-opacity="1.000000" fill-rule="evenodd"/>
		<path id="Vector" d="M131.86 60.27C134.01 57.19 137.25 55.04 140.92 54.23C144.56 53.49 148.34 54.18 151.47 56.17C154.87 54.8 158.54 53.89 162.15 54.35C165.75 54.81 169.29 56.82 170.96 60.14C171.31 61 171.73 61.83 172.23 62.61C173.7 64.57 176.43 64.82 178.85 64.92C177.63 65.63 176.41 66.34 175.19 67.05C176.4 67.62 177.62 68.18 178.83 68.75C177.18 69.38 175.52 70.01 173.87 70.64C177.72 74.03 178.65 80.05 177.19 85.1C175.81 89.88 172.65 93.9 169.11 97.34C168.42 94.77 169.18 91.99 169.69 89.33C170.22 86.52 170.31 83.23 168.34 81.24C167.01 79.9 165.06 79.5 163.22 79.17C153.95 77.54 144.59 76.42 135.19 75.85C133.93 75.67 132.65 75.81 131.46 76.23C129.17 77.25 128.25 80.03 127.59 82.51C127.27 78.17 127.52 73.8 128.34 69.53C128.97 66.26 129.96 62.98 131.86 60.27Z" fill="#2F2E41" fill-opacity="1.000000" fill-rule="nonzero"/>
		<path id="Vector" d="M160.69 211.8L134.47 211.8C133.56 211.8 132.68 211.44 132.04 210.8C131.4 210.15 131.03 209.28 131.03 208.37C131.03 207.46 131.4 206.59 132.04 205.94C132.68 205.3 133.56 204.94 134.47 204.94L160.69 204.94C161.61 204.94 162.48 205.3 163.12 205.94C163.77 206.59 164.13 207.46 164.13 208.37C164.13 209.28 163.77 210.15 163.12 210.8C162.48 211.44 161.61 211.8 160.69 211.8Z" fill="#6C63FF" fill-opacity="1.000000" fill-rule="nonzero"/>
		<path id="Vector" d="M74.64 28.15L2.5 28.15C1.84 28.15 1.2 27.89 0.73 27.42C0.26 26.95 0 26.31 0 25.64C0 24.98 0.26 24.34 0.73 23.87C1.2 23.4 1.84 23.14 2.5 23.14L74.64 23.14C75.3 23.14 75.94 23.4 76.41 23.87C76.88 24.34 77.15 24.98 77.15 25.64C77.15 26.31 76.88 26.95 76.41 27.42C75.94 27.89 75.3 28.15 74.64 28.15Z" fill="#6C63FF" fill-opacity="1.000000" fill-rule="nonzero"/>
		<path id="Vector" d="M116.29 44.16L2.5 44.16C1.84 44.16 1.2 43.9 0.73 43.43C0.26 42.96 0 42.32 0 41.66C0 40.99 0.26 40.36 0.73 39.89C1.2 39.41 1.84 39.15 2.5 39.15L116.29 39.15C116.95 39.15 117.59 39.41 118.06 39.89C118.53 40.36 118.8 40.99 118.8 41.66C118.8 42.32 118.53 42.96 118.06 43.43C117.59 43.9 116.95 44.16 116.29 44.16Z" fill="#6C63FF" fill-opacity="1.000000" fill-rule="nonzero"/>
		<path id="Vector" d="M94.42 59.25L2.5 59.25C1.84 59.25 1.2 58.99 0.73 58.52C0.26 58.05 0 57.41 0 56.74C0 56.08 0.26 55.44 0.73 54.97C1.2 54.5 1.84 54.24 2.5 54.24L94.42 54.24C95.09 54.24 95.73 54.5 96.2 54.97C96.67 55.44 96.93 56.08 96.93 56.74C96.93 57.41 96.67 58.05 96.2 58.52C95.73 58.99 95.09 59.25 94.42 59.25Z" fill="#CACACA" fill-opacity="1.000000" fill-rule="nonzero"/>
		<path id="Vector" d="M54.34 74.28L2.5 74.28C1.84 74.28 1.2 74.02 0.73 73.55C0.26 73.08 0 72.44 0 71.77C0 71.11 0.26 70.47 0.73 70C1.2 69.53 1.84 69.27 2.5 69.27L54.34 69.27C55 69.27 55.64 69.53 56.11 70C56.58 70.47 56.84 71.11 56.84 71.77C56.84 72.44 56.58 73.08 56.11 73.55C55.64 74.02 55 74.28 54.34 74.28Z" fill="#CACACA" fill-opacity="1.000000" fill-rule="nonzero"/>
		<path id="Vector" d="M82.97 89.31L2.5 89.31C1.84 89.31 1.2 89.04 0.73 88.57C0.26 88.1 0 87.47 0 86.8C0 86.14 0.26 85.5 0.73 85.03C1.2 84.56 1.84 84.3 2.5 84.3L82.97 84.3C83.63 84.3 84.27 84.56 84.74 85.03C85.21 85.5 85.47 86.14 85.47 86.8C85.47 87.47 85.21 88.1 84.74 88.57C84.27 89.04 83.63 89.31 82.97 89.31Z" fill="#CACACA" fill-opacity="1.000000" fill-rule="nonzero"/>
		<path id="Vector" d="M309.74 334.58L303.28 334.58L300.2 309.66L309.74 309.66L309.74 334.58Z" fill="#9F616A" fill-opacity="1.000000" fill-rule="nonzero"/>
		<path id="Vector" d="M312.29 343.52L287.6 343.52L287.6 343.21C287.6 340.67 288.61 338.22 290.42 336.42C292.22 334.62 294.66 333.61 297.21 333.61L297.21 333.61L301.72 330.19L310.13 333.61L312.29 333.61L312.29 343.52Z" fill="#2F2E41" fill-opacity="1.000000" fill-rule="nonzero"/>
		<path id="Vector" d="M305.97 217.46L303.12 182.72L300.88 169.68L313.43 166.91L317.59 184.77L313.96 218.43C314.69 219.32 315.14 220.42 315.24 221.57C315.35 222.72 315.1 223.88 314.55 224.89C313.99 225.9 313.14 226.72 312.11 227.25C311.08 227.78 309.92 227.99 308.77 227.85C307.62 227.71 306.54 227.23 305.67 226.47C304.79 225.72 304.17 224.72 303.86 223.6C303.56 222.48 303.6 221.3 303.98 220.21C304.36 219.12 305.05 218.16 305.97 217.46Z" fill="#9F616A" fill-opacity="1.000000" fill-rule="nonzero"/>
		<path id="Vector" d="M275.4 334.58L268.93 334.58L265.86 309.66L275.4 309.66L275.4 334.58Z" fill="#9F616A" fill-opacity="1.000000" fill-rule="nonzero"/>
		<path id="Vector" d="M265.05 225.34L262.19 230.29C262.19 230.29 259.04 231.15 260.07 241.41C261.1 251.67 261.14 312.45 266.12 319.93L267.02 326.35L276.43 327.25L276.67 321.55L287.89 242.38C287.89 242.38 294.49 320.1 299.96 322L301.93 328.48L310.55 328.48L310.04 320.85L310.6 224.54L265.05 225.34Z" fill="#2F2E41" fill-opacity="1.000000" fill-rule="nonzero"/>
		<path id="Vector" d="M261.9 229.92L261.7 229.87C267.62 207.76 265.91 179.12 261.73 148.38L261.73 148.25L276.84 134.43L289.95 134.43L302.95 142.81C311.35 147.01 313.26 155.9 313.28 155.99L313.29 156.06L308.14 174.02L312.02 225.96L312.03 226.02L312 226.07C310.75 229.25 307.38 228.8 303.49 228.28C299.6 227.75 285.27 232.54 280.88 232.54C272.29 232.54 262.51 230.07 261.9 229.92Z" fill="#E4E4E4" fill-opacity="1.000000" fill-rule="nonzero"/>
		<path id="Vector" d="M300.22 149.81L305.86 147.36L313.28 156.46L319.29 185.6L298.69 182.47L300.22 149.81Z" fill="#E4E4E4" fill-opacity="1.000000" fill-rule="nonzero"/>
		<path id="Vector" d="M213.58 203.54L239.33 180.03L248.28 170.28L258.15 178.5L246.57 192.71L217.71 210.45C217.44 211.57 216.85 212.59 216.01 213.38C215.16 214.17 214.1 214.68 212.95 214.86C211.81 215.04 210.64 214.87 209.59 214.38C208.54 213.89 207.67 213.1 207.07 212.11C206.48 211.12 206.2 209.97 206.26 208.81C206.33 207.66 206.74 206.55 207.43 205.63C208.13 204.71 209.09 204.02 210.19 203.65C211.28 203.28 212.47 203.24 213.58 203.54Z" fill="#9F616A" fill-opacity="1.000000" fill-rule="nonzero"/>
		<path id="Vector" d="M238.77 180.28L245.91 171.03C245.96 170.9 251.88 157.68 257.01 151.94C262.27 146.05 266.41 149.06 266.46 149.1L266.56 149.17L266.85 170.92L247.1 194.5L238.77 180.28Z" fill="#E4E4E4" fill-opacity="1.000000" fill-rule="nonzero"/>
		<path id="Vector" d="M284.02 107.63C290.57 108.69 295.02 114.86 293.96 121.41C292.89 127.96 286.72 132.41 280.17 131.34C273.61 130.28 269.16 124.11 270.23 117.56C271.29 111.02 277.46 106.57 284.02 107.63Z" fill="#9F616A" fill-opacity="1.000000" fill-rule="evenodd"/>
		<path id="Vector" d="M271.1 117.7C271.1 117.7 271.01 113.48 270.47 111.61C269.94 109.74 268.87 108.14 269.4 108.14C269.94 108.14 270.2 106.81 270.2 106.81C270.2 106.81 270.74 106.54 271.01 106.81C271.27 107.07 271.54 104.94 271.54 104.94C271.54 104.94 271.81 104.14 272.07 104.67C272.34 105.21 272.34 104.94 272.61 104.14C272.88 103.34 274.21 102.8 274.21 102.8C274.21 102.8 279.29 103.07 280.09 102C280.89 100.94 289.97 101.74 291.84 103.07C293.71 104.41 301.99 109.21 300.66 113.21C299.32 117.22 295.48 126.44 294.51 127.36C292.99 128.82 291.93 129.35 284.72 130.78C283.31 131.06 276.11 126.46 276.11 125.66C276.11 124.86 276.98 122.32 275.59 121.97C273.48 121.45 273.24 124.11 272.7 123.31C272.17 122.51 271.1 117.7 271.1 117.7Z" fill="#2F2E41" fill-opacity="1.000000" fill-rule="nonzero"/>
		<path id="Vector" d="M277.94 343.52L253.26 343.52L253.26 343.21C253.26 340.67 254.27 338.22 256.07 336.42C257.87 334.62 260.32 333.61 262.87 333.61L262.87 333.61L267.38 330.19L275.79 333.61L277.94 333.61L277.94 343.52Z" fill="#2F2E41" fill-opacity="1.000000" fill-rule="nonzero"/>
		<path id="Vector" d="M406.25 344L2.07 344C1.88 344 1.69 343.92 1.55 343.78C1.41 343.64 1.33 343.45 1.33 343.25C1.33 343.06 1.41 342.87 1.55 342.73C1.69 342.59 1.88 342.51 2.07 342.51L406.25 342.51C406.45 342.51 406.64 342.59 406.78 342.73C406.92 342.87 407 343.06 407 343.25C407 343.45 406.92 343.64 406.78 343.78C406.64 343.92 406.45 344 406.25 344Z" fill="#CACACA" fill-opacity="1.000000" fill-rule="nonzero"/>
	</g>
</svg>
