<svg width="123.000000" height="45.000000" viewBox="0 0 123 45" fill="none" xmlns="http://www.w3.org/2000/svg" xmlns:xlink="http://www.w3.org/1999/xlink">
	<desc>
			Created with Pixso.
	</desc>
	<defs/>
	<path id="Vector" d="M33.92 13.95L33.92 13.16L39.96 7.47L40.71 7.47L40.71 11.1L48.32 11.1L48.32 13.95L40.71 13.95L40.71 25.29C40.71 26.56 41 27.48 41.58 28.07C42.17 28.66 43.06 28.96 44.26 28.96C45.11 28.96 46.15 28.72 47.37 28.25L48.12 30.96C46.58 31.62 45.14 31.95 43.78 31.95C41.77 31.95 40.21 31.42 39.11 30.34C38 29.27 37.45 27.77 37.45 25.82L37.45 13.95L33.92 13.95L33.92 13.95Z" fill="#FFFFFF" fill-opacity="1.000000" fill-rule="nonzero"/>
	<path id="Vector" d="M80.12 31.63L76.88 31.63L76.88 11.1L80.08 11.1L80.16 14.36C80.75 13.26 81.58 12.39 82.65 11.74C83.72 11.1 84.94 10.77 86.32 10.77C87 10.77 87.68 10.87 88.34 11.06L87.85 14.28C87.19 14.09 86.5 13.99 85.77 13.99C84.17 13.99 82.82 14.61 81.74 15.85C80.66 17.08 80.12 18.78 80.12 20.96L80.12 31.63L80.12 31.63Z" fill="#FFFFFF" fill-opacity="1.000000" fill-rule="nonzero"/>
	<path id="Vector" d="M90.4 21.24C90.4 18.21 91.36 15.71 93.29 13.74C95.21 11.76 97.64 10.77 100.58 10.77C103.52 10.77 105.84 11.66 107.65 13.44C109.47 15.23 110.38 17.54 110.38 20.37C110.38 20.38 110.34 20.94 110.25 22.04L93.71 22.04C93.88 24.33 94.58 26.07 95.8 27.26C97.02 28.45 98.64 29.04 100.66 29.04C102.45 29.04 103.91 28.66 105.04 27.89C106.17 27.12 106.92 26.06 107.29 24.7L110.38 24.7C109.94 26.72 108.73 28.92 106.98 30.13C105.23 31.35 103.12 31.95 100.66 31.95C97.56 31.95 95.08 30.95 93.21 28.95C91.33 26.95 90.4 24.38 90.4 21.24L90.4 21.24ZM105.16 15.17C103.94 14.1 102.41 13.56 100.58 13.56C98.75 13.56 97.2 14.1 95.93 15.18C94.67 16.26 93.95 17.64 93.79 19.33L107.16 19.33C107.06 17.63 106.39 16.25 105.16 15.17Z" fill="#FFFFFF" fill-opacity="1.000000" fill-rule="nonzero"/>
	<path id="Vector" d="M90.4 21.24C90.4 18.21 91.36 15.71 93.29 13.74C95.21 11.76 97.64 10.77 100.58 10.77C103.52 10.77 105.84 11.66 107.65 13.44C109.47 15.23 110.38 17.54 110.38 20.37C110.38 20.38 110.34 20.94 110.25 22.04L93.71 22.04C93.88 24.33 94.58 26.07 95.8 27.26C97.02 28.45 98.64 29.04 100.66 29.04C102.45 29.04 103.91 28.66 105.04 27.89C106.17 27.12 106.92 26.06 107.29 24.7L110.38 24.7C109.94 26.72 108.73 28.92 106.98 30.13C105.23 31.35 103.12 31.95 100.66 31.95C97.56 31.95 95.08 30.95 93.21 28.95C91.33 26.95 90.4 24.38 90.4 21.24L90.4 21.24ZM105.16 15.17C103.94 14.1 102.41 13.56 100.58 13.56C98.75 13.56 97.2 14.1 95.93 15.18C94.67 16.26 93.95 17.64 93.79 19.33L107.16 19.33C107.06 17.63 106.39 16.25 105.16 15.17Z" fill="#FFFFFF" fill-opacity="1.000000" fill-rule="nonzero"/>
	<path id="Vector" d="M69.64 16.22L69.64 12.65C69.64 9.98 67.33 7.81 64.5 7.81L60.7 7.81C57.87 7.81 55.57 9.98 55.57 12.65L55.57 16.22C53.67 18.08 52.48 20.68 52.48 23.56C52.48 29.19 57.01 33.76 62.6 33.76C68.19 33.76 72.72 29.19 72.72 23.56C72.72 20.68 71.54 18.08 69.64 16.22L69.64 16.22ZM58.71 12.65C58.71 11.74 59.62 10.98 60.71 10.98L64.5 10.98C65.58 10.98 66.49 11.74 66.49 12.65L66.49 14.14C65.3 13.63 63.98 13.35 62.6 13.35C61.22 13.35 59.91 13.63 58.71 14.14L58.71 12.65L58.71 12.65ZM62.6 30.59C58.76 30.59 55.63 27.43 55.63 23.55C55.63 21.14 56.84 19.01 58.68 17.75L58.71 17.75L58.71 17.72C59.82 16.96 61.16 16.52 62.6 16.52C64.04 16.52 65.38 16.96 66.49 17.72L66.49 17.75L66.53 17.75C68.37 19.01 69.58 21.14 69.58 23.55C69.58 27.43 66.45 30.59 62.6 30.59Z" fill="#FFFFFF" fill-opacity="1.000000" fill-rule="nonzero"/>
	<path id="Vector" d="M64.72 22.68C64.72 21.5 63.77 20.54 62.6 20.54C61.43 20.54 60.48 21.5 60.48 22.68C60.48 23.52 60.97 24.24 61.67 24.59L61.67 26.53C61.67 26.96 62.03 27.32 62.46 27.32L62.75 27.32C63.18 27.32 63.53 26.96 63.53 26.53L63.53 24.59C64.23 24.24 64.72 23.52 64.72 22.68L64.72 22.68Z" fill="#FFFFFF" fill-opacity="1.000000" fill-rule="nonzero"/>
	<path id="Vector" d="M20.18 31.95C27.15 32 32.6 27.58 30.86 20.48C29.71 15.96 24.86 14.76 20.87 13.87C20.79 13.86 20.67 13.83 20.52 13.79C18.27 13.24 17.97 13.26 15.97 12.51C15.11 12.18 14.49 11.84 14.11 11.5C12 9.6 12.02 6.14 14.48 4.49C15.74 3.63 17.43 3.19 19.56 3.18L31.17 3.18L31.17 0.05L19.03 0.06C18.8 0.06 18.56 0.06 18.33 0.08C16.86 0.2 15.51 0.5 14.28 0.99C9.36 2.91 7.59 8.21 10.25 12.72C10.58 13.24 11.06 13.73 11.7 14.18C13.11 15.18 13.73 15.53 15.46 16.08C17.38 16.68 17.8 16.73 19.8 17.19C21.7 17.62 22.72 17.8 24.39 18.52C25.78 19.14 26.54 19.77 27.16 21.09C27.44 21.69 27.57 22.38 27.57 23.16C27.58 27.09 23.84 28.74 20.18 28.76C20.18 28.76 12.59 28.75 9.01 28.75L9.01 31.97C12.6 31.96 20.18 31.95 20.18 31.95Z" fill="#FFFFFF" fill-opacity="1.000000" fill-rule="nonzero"/>
	<path id="Vector" d="M110.01 0L34.47 0.08L34.47 3.21L110.01 3.17C115.44 3.17 119.85 7.73 119.85 13.34L119.85 30.13C119.85 36.01 115.23 40.8 109.54 40.8L7.99 40.77C5.35 40.77 3.2 38.6 3.2 35.94C3.17 34.27 4.27 32.79 5.76 32.22L5.76 28.88C4.38 29.14 3.13 29.8 2.12 30.82C-2.72 35.67 1.35 44.11 7.99 43.99L109.55 43.97C116.96 43.97 123 37.76 123 30.14L123 13.34C123 5.98 117.17 0 110.02 0L110.01 0Z" fill="#FFFFFF" fill-opacity="1.000000" fill-rule="nonzero"/>
</svg>
