<svg width="18.000000" height="25.000000" viewBox="0 0 18 25" fill="none" xmlns="http://www.w3.org/2000/svg" xmlns:xlink="http://www.w3.org/1999/xlink">
	<desc>
			Created with Pixso.
	</desc>
	<defs/>
	<path id="Vector" d="M11.84 24.58C10.92 24.33 9.72 23.65 8.07 22.05C6.07 20.1 4.57 18.39 2.86 15.43C1.2 12.56 0.5 10.81 -0.29 7.6C-1.18 3.97 -0.44 2.39 0.08 1.78C0.7 1.03 1.42 0.68 2.3 0.38C2.81 0.22 3.32 0.1 3.85 0.03C3.9 0.02 3.95 0.01 3.99 0.01C4.25 -0.04 4.65 -0.1 5.05 0.19C5.32 0.38 5.53 0.68 5.83 1.21C6.46 2.28 7.13 4.48 7.32 5.52C7.44 6.22 7.52 6.68 7.4 7.14C7.25 7.68 6.87 8.03 6.42 8.39C6.33 8.46 6.25 8.52 6.17 8.58C5.69 8.96 5.57 9.07 5.56 9.33C5.53 9.85 5.93 11.51 6.87 13.15C7.81 14.78 9.03 15.89 9.49 16.13C9.73 16.25 9.9 16.21 10.48 15.96C10.57 15.93 10.65 15.89 10.74 15.86C11.34 15.62 11.81 15.46 12.34 15.6L12.34 15.6C12.8 15.73 13.14 16.03 13.7 16.53C14.44 17.19 16.07 18.86 16.69 19.95C16.99 20.48 17.15 20.81 17.18 21.13C17.23 21.63 16.98 21.94 16.81 22.15C16.78 22.18 16.75 22.22 16.72 22.26C16.39 22.68 16.03 23.07 15.64 23.42C14.93 24.03 14.27 24.48 13.32 24.64C12.83 24.73 12.32 24.71 11.84 24.58Z" fill="#FFFFFF" fill-opacity="1.000000" fill-rule="nonzero"/>
</svg>
