<svg width="21.000000" height="23.000000" viewBox="0 0 21 23" fill="none" xmlns="http://www.w3.org/2000/svg" xmlns:xlink="http://www.w3.org/1999/xlink">
	<desc>
			Created with Pixso.
	</desc>
	<defs/>
	<circle id="Ellipse 152" cx="10.500000" cy="10.500000" r="10.000000" stroke="#2954B1" stroke-opacity="0.600000" stroke-width="1.000000"/>
	<path id="?" d="M12.14 7.61Q12.25 7.88 12.25 8.19Q12.25 8.57 12.13 8.89Q12.02 9.2 11.77 9.47Q11.53 9.74 11.33 9.91Q11.13 10.08 10.78 10.35Q10.43 10.61 10.28 10.73Q9.92 11.03 9.73 11.41Q9.41 12.06 9.58 12.97L10.65 12.95Q10.62 12.75 10.62 12.58Q10.61 12.41 10.65 12.26Q10.69 12.11 10.72 11.99Q10.76 11.87 10.85 11.74Q10.94 11.6 11.01 11.51Q11.09 11.42 11.22 11.3Q11.36 11.18 11.44 11.11Q11.53 11.03 11.68 10.9Q11.84 10.78 11.93 10.7Q11.98 10.67 12.15 10.53Q12.33 10.38 12.39 10.33Q12.44 10.28 12.59 10.15Q12.74 10.03 12.81 9.95Q12.88 9.86 12.98 9.73Q13.09 9.6 13.16 9.47Q13.24 9.33 13.29 9.18Q13.54 8.65 13.54 7.94Q13.54 7.37 13.32 6.91Q13.12 6.46 12.71 6.1Q12.62 6.02 12.53 5.95Q11.74 5.35 10.49 5.35Q9.91 5.35 9.38 5.51Q9.08 5.61 8.8 5.76Q8.18 6.08 7.79 6.58Q7.68 6.72 7.6 6.86L8.31 7.66Q8.78 7.01 9.41 6.74Q9.87 6.55 10.42 6.55Q10.99 6.55 11.41 6.79Q11.58 6.89 11.73 7.03Q12.01 7.29 12.14 7.61ZM9.33 14.89Q9.28 15.02 9.28 15.19Q9.28 15.39 9.35 15.56Q9.41 15.69 9.51 15.79Q9.59 15.87 9.67 15.92Q9.87 16.04 10.14 16.04Q10.34 16.04 10.49 15.96Q10.61 15.9 10.71 15.79Q10.8 15.7 10.85 15.59Q10.94 15.41 10.94 15.19Q10.94 15.07 10.9 14.96Q10.85 14.78 10.7 14.63Q10.55 14.48 10.37 14.43Q10.26 14.39 10.14 14.39Q9.86 14.39 9.65 14.52Q9.58 14.57 9.51 14.63Q9.39 14.74 9.33 14.89Z" fill="#2954B1" fill-opacity="0.600000" fill-rule="evenodd"/>
</svg>
